<?xml version="1.0" encoding="utf-8"?>
<!-- Generator: Adobe Illustrator 21.1.0, SVG Export Plug-In . SVG Version: 6.00 Build 0)  -->
<svg version="1.1" baseProfile="basic" id="Layer_1"
	 xmlns="http://www.w3.org/2000/svg" xmlns:xlink="http://www.w3.org/1999/xlink" x="0px" y="0px" viewBox="0 0 230 64"
	 xml:space="preserve">
<style type="text/css">
	.st0{fill:#FFFFFF;}
</style>
<path class="st0" d="M27.4,51.2l-3.2,10.1L44.4,57c9.1-2,16.6-8.7,19.4-17.6l2-6.2l-24.2,5.2C35,39.7,29.5,44.7,27.4,51.2z"/>
<path class="st0" d="M61.7,28.6L46.9,12.1C40.7,5.2,31.2,2.1,22,4l-6.4,1.4l17.5,19.4c4.6,5.1,11.6,7.4,18.3,5.9L61.7,28.6z"/>
<path class="st0" d="M13.7,11.3L7,32.3C4.1,41.2,6.2,51,12.5,58l4.4,4.9l8-24.9c2.1-6.5,0.6-13.7-4-18.8L13.7,11.3z"/>
<g>
	<path class="st0" d="M75.9,10.8v12.1h7.6v2.6H73.1V10.8H75.9z"/>
	<path class="st0" d="M95.8,22.7h-7.7l-1.3,2.8h-3l6.6-14.7h3l6.6,14.7h-3L95.8,22.7z M92,13.8l-2.7,6.3h5.5L92,13.8z"/>
	<path class="st0" d="M111,10.7h2.8v14.7H112v0l-7.7-9.9v9.9h-2.8V10.8h2.2l7.2,9.1V10.7z"/>
	<path class="st0" d="M129.3,18c0.1,3.7-2.2,7.5-7.4,7.5c-1.8,0-4,0-5.8,0V10.8c1.8,0,4,0,5.8,0C126.9,10.8,129.2,14.3,129.3,18z
		 M118.9,22.8h3c3.3,0,4.7-2.4,4.6-4.8c-0.1-2.3-1.4-4.6-4.6-4.6h-3V22.8z"/>
	<path class="st0" d="M131.3,25.5V10.8h2.8v14.7H131.3z"/>
	<path class="st0" d="M146.4,10.7h2.8v14.7h-1.7v0l-7.7-9.9v9.9h-2.8V10.8h2.2l7.2,9.1V10.7z"/>
	<path class="st0" d="M162.6,14.3c-1-0.9-2.5-1.5-3.7-1.5c-3.2,0-5.1,2.4-5.1,5.4c0,2.4,1.4,4.9,5.1,4.9c1.2,0,2.2-0.3,3.3-1.2v-2.6
		h-3.8V17h6.3v6.2c-1.4,1.7-3.3,2.6-5.9,2.6c-5.5,0-7.8-3.6-7.8-7.5c0-4.1,2.6-8,7.8-8c2,0,4,0.8,5.5,2.2L162.6,14.3z"/>
	<path class="st0" d="M178.2,21.1H174v4.3h-2.8V10.8c2.3,0,4.6,0,6.9,0C185.3,10.7,185.4,21.1,178.2,21.1z M174,18.6h4.2
		c3.6,0,3.5-5.2,0-5.2H174V18.6z"/>
	<path class="st0" d="M195.9,22.7h-7.7l-1.3,2.8h-3l6.6-14.7h3l6.6,14.7h-3L195.9,22.7z M192,13.8l-2.7,6.3h5.5L192,13.8z"/>
	<path class="st0" d="M211.6,14.3c-1-0.9-2.5-1.5-3.7-1.5c-3.2,0-5.1,2.4-5.1,5.4c0,2.4,1.4,4.9,5.1,4.9c1.2,0,2.2-0.3,3.3-1.2v-2.6
		h-3.8V17h6.3v6.2c-1.5,1.7-3.3,2.6-5.9,2.6c-5.5,0-7.8-3.6-7.8-7.5c0-4.1,2.6-8,7.8-8c2,0,4,0.8,5.5,2.2L211.6,14.3z"/>
	<path class="st0" d="M227,25.5h-11c0-4.9,0-9.8,0-14.7h11v2.7h-8.3v3.4h8v2.6h-8v3.3h8.3V25.5z"/>
</g>
<g>
	<path class="st0" d="M79.5,36.6H73v-1.2h14.2v1.2h-6.4v16.5h-1.4V36.6z"/>
	<path class="st0" d="M98.5,40.6c0,4.2,0,8.3,0,12.5h-1.2v-2.7c-1.2,2-3.1,2.9-5.1,2.9c-3.5,0-6.4-2.6-6.4-6.5
		c0-3.8,2.9-6.4,6.4-6.4c2,0,4.1,0.9,5.1,2.9v-2.7H98.5z M87,46.9c0,3.1,2.3,5.2,5.1,5.2c7,0,7-10.5,0-10.5
		C89.3,41.6,87,43.7,87,46.9z"/>
	<path class="st0" d="M111.9,40.1l0.8,0.7l-1.2,1.4c0.9,1,1.5,2.2,1.5,4.3c0,2.2-1.3,4.4-3.4,5.3c2.2,0.8,3.4,2.3,3.4,4.5
		c0,3.4-2.6,5-6,5c-3.3,0-5.9-1.8-5.9-5h1.2c0,2.6,2.2,3.8,4.7,3.8c2.5,0,4.7-1.1,4.7-3.8c0-2.7-2.4-3.8-4.7-3.8
		c-3.6,0-5.9-2.7-5.9-6.1c0-3.9,2.6-6.1,5.9-6.1c1.3,0,2.6,0.5,3.5,1.1L111.9,40.1z M102.5,46.5c0,2.6,1.8,4.8,4.6,4.8
		c2.6,0,4.7-2.2,4.7-4.8c0-3.2-2.1-4.9-4.7-4.9C104.6,41.6,102.5,43.2,102.5,46.5z"/>
	<path class="st0" d="M116.9,35.4v17.7h-1.2V35.4H116.9z"/>
	<path class="st0" d="M122,36.5c0,1.3-2,1.3-2,0S122,35.2,122,36.5z M120.3,40.5v12.6h1.2V40.5H120.3z"/>
	<path class="st0" d="M126.3,40.6v2.2c1-1.7,2.7-2.4,4.5-2.5c3.3,0,5.7,2.1,5.7,5.5v7.2h-1.2v-7.2c0-2.8-1.7-4.4-4.5-4.3
		c-2.6,0-4.4,2-4.4,4.6v7h-1.2V40.6H126.3z"/>
	<path class="st0" d="M139,46.9c0-3.8,2.8-6.5,6.4-6.5c3.5,0,6.7,2.2,6.2,7h-11.3c0.3,2.9,2.5,4.6,5.1,4.6c1.6,0,3.6-0.7,4.5-1.9
		l0.9,0.7c-1.2,1.6-3.4,2.4-5.4,2.4C141.8,53.3,139,50.8,139,46.9z M150.4,46.3c0-3.1-2.1-4.8-5.1-4.8c-2.6,0-4.8,1.7-5.1,4.8H150.4
		z"/>
	<path class="st0" d="M162.9,35.4v7.6c1-1.8,2.8-2.5,4.5-2.5c3.5,0,5.2,2.3,5.2,5.5v7.2h-1.2v-7.2c0-2.6-1.2-4.3-4-4.3
		c-2.6,0-4.5,2-4.5,4.6v6.9h-1.2V35.4H162.9z"/>
	<path class="st0" d="M175.2,46.9c0-3.8,2.8-6.5,6.4-6.5s6.7,2.2,6.2,7h-11.3c0.3,2.9,2.5,4.6,5.1,4.6c1.6,0,3.6-0.7,4.5-1.9
		l0.9,0.7c-1.2,1.6-3.4,2.4-5.4,2.4C178.1,53.3,175.2,50.8,175.2,46.9z M186.7,46.3c0-3.1-2.1-4.8-5.1-4.8c-2.6,0-4.8,1.7-5.1,4.8
		H186.7z"/>
	<path class="st0" d="M192.2,40.6l0.1,2.2c0.8-1.7,2.6-2.4,4.2-2.4c0.9,0,1.9,0.2,2.7,0.7l-0.6,1c-0.7-0.4-1.4-0.6-2.1-0.6
		c-2.3,0-4.1,1.9-4.1,4.2v7.3H191V40.6H192.2z"/>
	<path class="st0" d="M200.2,46.9c0-3.8,2.8-6.5,6.4-6.5s6.7,2.2,6.2,7h-11.3c0.3,2.9,2.5,4.6,5.1,4.6c1.6,0,3.6-0.7,4.5-1.9
		l0.9,0.7c-1.2,1.6-3.4,2.4-5.4,2.4C203.1,53.3,200.2,50.8,200.2,46.9z M211.7,46.3c0-3.1-2.1-4.8-5.1-4.8c-2.6,0-4.8,1.7-5.1,4.8
		H211.7z"/>
</g>
</svg>
